<?xml version="1.0" encoding="utf-8"?>
<!-- Generator: Adobe Illustrator 27.5.0, SVG Export Plug-In . SVG Version: 6.00 Build 0)  -->
<svg version="1.1" id="Layer_1" xmlns="http://www.w3.org/2000/svg" xmlns:xlink="http://www.w3.org/1999/xlink" x="0px" y="0px"
	 viewBox="0 0 269 56" style="enable-background:new 0 0 269 56;" xml:space="preserve">
<style type="text/css">
	.st0{fill:#173A67;}
</style>
<g id="Layer_1-2">
	<path class="st0" d="M222,41.3c-0.1,0-0.2,0.1-0.3,0.1c-0.2,0-0.4,0-0.5,0c-13.1,0-26.3,0-39.4,0c-0.2,0-0.4,0-0.6,0
		c-0.2,0-0.3-0.1-0.3-0.3c0-0.1,0-0.3,0-0.4c0-13.2,0-26.5,0-39.7c0-0.2,0-0.3,0-0.6c0.1,0,0.2-0.1,0.3-0.1c0.2,0,0.3,0,0.5,0
		c13.2,0,26.3,0,39.5,0c0.3,0,0.5,0,0.8,0.1c0,0.1,0,0.2,0,0.3c0,0.2,0,0.4,0,0.5c0,13.1,0,26.1,0,39.2C222,40.8,222,41.1,222,41.3
		L222,41.3z M185.5,20.8L185.5,20.8c0,3.2,0,6.4,0,9.7c0,1.8,0,3.5,0,5.3c0,0.2,0,0.4,0,0.7c0,0.2,0.1,0.3,0.3,0.3
		c0.2,0,0.3,0,0.5,0c1.7,0,3.4,0,5,0c4.8,0,9.6,0,14.4,0c0,0,0,0,0.1,0c0.7,0,0.8-0.1,0.8-0.8c0-1.4,0-2.9,0-4.3c0-0.2,0-0.3,0-0.5
		c0-0.3-0.1-0.5-0.1-0.8c0-1.7,0-3.5,0-5.2c0-0.5-0.1-1,0.1-1.5c0.1-0.3-0.1-0.5-0.4-0.5c-0.2,0-0.3,0-0.5,0c-2.7,0-5.4,0-8.1,0
		c-0.2,0-0.4,0-0.5,0c-0.4,0.1-0.6,0.3-0.6,0.7c0,0.1,0,0.1,0,0.2c0,2.7,0,5.4,0,8.1c0,0.1,0,0.2,0,0.2c0,0.2-0.1,0.3-0.3,0.3
		c-0.1,0-0.2,0-0.2,0c-1.1,0-2.2,0-3.3,0c-0.5,0-0.6-0.1-0.6-0.5c0-0.1,0-0.1,0-0.2c0-3.7,0-7.4,0.1-11c0-2.5,0-4.9,0-7.4
		c-0.1-2.6,0-5.2,0-7.8c0-0.1,0-0.2,0-0.4c0-0.3-0.1-0.4-0.4-0.5c-0.2,0-0.4,0-0.5,0c-1.6,0-3.2,0-4.7,0c-0.2,0-0.3,0-0.5,0
		c-0.3,0-0.4,0.1-0.5,0.4c0,0.4,0,0.9,0,1.3c0,2.1,0,4.3,0,6.4C185.5,15.6,185.5,18.2,185.5,20.8L185.5,20.8z M217.3,20.8
		C217.3,20.8,217.4,20.8,217.3,20.8c0-5.1,0-10.2,0-15.3c0-0.1,0-0.2,0-0.2c0-0.2-0.1-0.3-0.3-0.3c-0.1,0-0.2,0-0.2,0
		c-0.8,0-1.6,0-2.4,0c-4.7,0-9.4,0-14.1,0c-0.8,0-1.7,0-2.5,0c-0.2,0-0.4,0-0.7,0c-0.6,0-0.7,0.1-0.7,0.7c0,0,0,0.1,0,0.1
		c0,3.8,0,7.6,0,11.4c0,0.3,0,0.6,0,0.9c0,0.3,0.1,0.4,0.4,0.5c0.2,0,0.4,0,0.6,0c2.1,0,4.2,0,6.2,0c0.8,0,1.5,0,2.3,0
		c0.4,0,0.6-0.2,0.6-0.6c0-2.4-0.1-4.8,0-7.2c0-0.4,0-0.8,0-1.2c0-0.5,0.1-0.6,0.6-0.6c1.1,0,2.2,0,3.3,0c0.1,0,0.2,0,0.3,0
		c0.1,0,0.2,0.1,0.2,0.2c0,0.2,0,0.3,0,0.5c0,2.3,0,4.5,0,6.8c0,0.5,0.1,1,0.1,1.5c0,6,0,11.9,0,17.9c0,0.1,0,0.3,0,0.4
		c0,0.4,0.2,0.5,0.6,0.5c0.1,0,0.1,0,0.2,0c1.6,0,3.2,0,4.8,0c0.1,0,0.3,0,0.4,0c0.2,0,0.3-0.1,0.3-0.3c0-0.3,0-0.5,0-0.8
		C217.3,30.7,217.3,25.8,217.3,20.8L217.3,20.8z"/>
	<path class="st0" d="M111.4,53.3c0.1-0.1,0.2-0.2,0.2-0.2c0.2-0.5,0.3-1.1,0.2-1.7c-0.1-0.5-0.3-0.6-0.8-0.6c-0.1,0-0.3,0-0.4,0
		c0,0-0.1-0.1-0.1-0.1c0,0,0-0.1,0.1-0.1c0.2-0.1,0.3-0.1,0.5-0.1c0.9,0,1.7,0,2.6,0c0.1,0,0.1,0,0.2,0c0,0,0.1,0.1,0.1,0.1
		c0,0,0,0.1-0.1,0.1c-0.2,0.1-0.3,0.1-0.5,0.1c-0.2,0-0.4,0-0.5,0c-0.4,0-0.5,0.1-0.5,0.5c0,0.4,0,0.8-0.1,1.1
		c0,0.3-0.1,0.6-0.2,0.9c-0.1,0.2-0.1,0.5,0.1,0.6c0.4,0.3,0.7,0.6,1.1,1c0.1,0.1,0.3,0.2,0.4,0.4c0,0.2-0.1,0.2-0.2,0.2
		c-0.2,0-0.4,0-0.6,0c-0.3,0-0.5-0.1-0.7-0.3c-0.2-0.2-0.3-0.3-0.5-0.5c-0.1-0.1-0.2-0.1-0.3-0.2c-0.1,0.1-0.3,0.2-0.4,0.3
		c-1.1,0.9-2.4,1.1-3.7,0.5c-1-0.4-1.4-1.3-1.3-2.1c0-0.1,0-0.2,0-0.2c0-0.1-0.1-0.3-0.3-0.3c-0.1,0-0.2,0-0.3,0c-0.7,0-1.3,0-2-0.1
		c-1-0.1-2-0.5-3-0.9c-1.3-0.6-2.4-1.5-3.4-2.5c-1.4-1.3-2.6-2.9-3.6-4.4c-1.4-2-2.6-4.1-3.9-6.2c-0.7-1.2-1.3-2.4-2-3.6
		c0-0.1-0.1-0.1-0.1-0.2c-0.1-0.2-0.3-0.4-0.6-0.4c-0.5,0-0.9,0-1.4,0c-0.3,0-0.4,0.1-0.4,0.4c0,0.1,0,0.2,0,0.2c0,1.6,0,3.1,0,4.7
		c0,0.1,0,0.2,0,0.3c0.1,0.4,0.2,0.6,0.6,0.7c0.3,0.1,0.5,0.1,0.8,0.2c0.1,0,0.3,0,0.4,0.1c0.1,0,0.2,0.2,0.1,0.3
		c0,0.1-0.1,0.2-0.2,0.2c-0.1,0-0.2,0-0.4,0c-1.7,0-3.3,0-5,0c-0.1,0-0.2,0-0.4,0c-0.1,0-0.2-0.1-0.2-0.2c0-0.1,0.1-0.2,0.2-0.3
		c0.1,0,0.2,0,0.3-0.1c0.3-0.1,0.5-0.1,0.8-0.2c0.3-0.1,0.5-0.3,0.5-0.6c0-0.3,0.1-0.6,0.1-0.9c0-1.4,0-2.8,0-4.2c0-2.4,0-4.8,0-7.2
		c0-0.3,0-0.6,0-0.8c0-0.5-0.4-0.8-0.8-0.9c-0.2,0-0.4,0-0.6-0.1c-0.1,0-0.2,0-0.3-0.1c-0.1-0.1-0.2-0.2-0.1-0.3
		c0-0.1,0.1-0.2,0.2-0.2c0.1,0,0.3,0,0.4,0c2.1,0,4.2,0,6.2,0c0.9,0,1.8,0.2,2.6,0.7c1.1,0.6,1.7,1.5,1.8,2.8
		c0.1,1.3-0.2,2.4-0.9,3.4c-0.5,0.6-1,1.1-1.8,1.5c-0.4,0.2-0.5,0.4-0.2,0.8c1,1.8,2,3.6,3.1,5.4c1.4,2.3,2.9,4.5,4.6,6.7
		c0.9,1.2,1.9,2.3,3,3.3c0.8,0.8,1.7,1.4,2.8,1.8c0.9,0.4,1.9,0.5,2.9,0.4c0.7-0.1,1.3-0.4,1.9-0.7c0.2-0.2,0.3-0.3,0-0.5
		c-0.1-0.1-0.1-0.1-0.2-0.2c-0.1-0.2-0.2-0.3-0.3-0.5c-0.4-0.7-0.3-1.5,0.3-2c0.2-0.2,0.4-0.3,0.7-0.4c0.6-0.2,1.2-0.2,1.8,0.1
		c0.3,0.1,0.4,0.3,0.4,0.6c0,0.1,0,0.1,0,0.2c0,0.1,0,0.2-0.1,0.3c-0.1,0-0.2,0-0.3-0.2c0-0.1-0.1-0.2-0.1-0.3
		c-0.3-0.5-0.9-0.6-1.3-0.4c-0.5,0.3-0.8,0.9-0.5,1.4c0.1,0.2,0.2,0.5,0.4,0.7c0.2,0.2,0.4,0.5,0.6,0.7c0.7,0.7,1.5,1.4,2.2,2.1
		C111.2,53.1,111.3,53.1,111.4,53.3L111.4,53.3z M85.2,29.8L85.2,29.8c0,0.8,0,1.7,0,2.5c0,0.3,0,0.6,0,0.8c0,0.4,0.1,0.5,0.5,0.5
		c0.5,0,1,0,1.5,0c1-0.1,1.9-0.5,2.3-1.5c0.2-0.4,0.3-0.7,0.4-1.1c0.2-0.8,0.2-1.6,0.1-2.4c-0.1-0.9-0.5-1.7-1.4-2.1
		c-0.5-0.3-0.9-0.4-1.5-0.4c-0.4,0-0.8,0-1.2,0c-0.7,0-0.7,0.1-0.7,0.7C85.2,27.8,85.2,28.8,85.2,29.8L85.2,29.8z M109,55.1
		c0.6,0,1.2-0.2,1.7-0.7c0.3-0.3,0.3-0.4,0-0.7c-0.4-0.3-0.7-0.7-1.1-1c-0.4-0.3-0.8-0.7-1.1-1c-0.2-0.2-0.4-0.2-0.6,0
		c-0.6,0.4-0.9,1.3-0.7,2.1C107.5,54.7,108.1,55.1,109,55.1L109,55.1z"/>
	<path class="st0" d="M127.8,25.4c0.8,0,1.5,0,2.3,0c0.2,0,0.3,0,0.5,0c0.1,0,0.2,0.1,0.2,0.2c0,0.1,0,0.2-0.2,0.3
		c-0.2,0-0.3,0.1-0.5,0.1c-0.3,0.1-0.5,0.2-0.7,0.5c-0.2,0.2-0.2,0.4-0.2,0.7c0,0.3,0,0.5,0.1,0.8c0.2,1,0.5,1.9,0.8,2.9
		c0.2,0.9,0.5,1.7,0.7,2.6c0.2,0.9,0.5,1.8,0.7,2.6c0.1,0.4,0.2,0.9,0.4,1.3c0,0.1,0,0.1,0.1,0.2c0.1,0.1,0.2,0.1,0.2,0.1
		s0.2-0.1,0.2-0.2c0.1-0.3,0.2-0.6,0.3-0.9c0.6-1.5,1.1-3.1,1.7-4.6c0.5-1.5,1.1-2.9,1.6-4.4c0.2-0.5,0.4-1.1,0.6-1.6
		c0.1-0.3,0.3-0.4,0.6-0.4c0.2,0,0.4,0.1,0.5,0.3c0.2,0.5,0.4,0.9,0.5,1.4c0.6,1.5,1.1,3.1,1.7,4.6c0.4,1.2,0.9,2.3,1.3,3.5
		c0.2,0.6,0.4,1.2,0.6,1.8c0,0.1,0.1,0.2,0.1,0.3c0.1,0.1,0.3,0.1,0.4,0c0-0.1,0.1-0.1,0.1-0.2c0.4-1.4,0.8-2.8,1.3-4.1
		c0.4-1.2,0.7-2.3,1.1-3.5c0.2-0.6,0.4-1.2,0.6-1.9c0.1-0.3,0.1-0.6,0-0.8c-0.1-0.5-0.5-0.8-0.9-0.9c-0.2-0.1-0.4-0.1-0.6-0.1
		c-0.1,0-0.2,0-0.3-0.1c-0.1,0-0.1-0.1-0.1-0.2c0-0.1,0.1-0.1,0.1-0.2c0.1,0,0.2,0,0.3,0c1.4,0,2.7,0,4.1,0c0.1,0,0.2,0,0.3,0
		c0.1,0,0.1,0.1,0.2,0.2c0,0.1,0,0.2-0.1,0.3c0,0.1-0.1,0.1-0.2,0.1c-0.8,0.2-1.3,0.8-1.6,1.5c-0.2,0.5-0.4,1.1-0.5,1.6
		c-0.4,1.2-0.7,2.3-1.1,3.5c-0.2,0.8-0.5,1.5-0.7,2.3c-0.2,0.8-0.5,1.5-0.7,2.3c-0.2,0.8-0.5,1.6-0.7,2.4c-0.1,0.5-0.3,0.9-0.4,1.4
		c-0.1,0.3-0.3,0.4-0.6,0.4c-0.1,0-0.2,0-0.4,0c-0.2,0-0.3-0.1-0.4-0.3c-0.3-0.8-0.6-1.6-0.9-2.4c-0.2-0.7-0.5-1.3-0.7-2
		c-0.4-1-0.7-2-1.1-2.9c-0.3-0.9-0.7-1.8-1-2.7c-0.2-0.4-0.3-0.9-0.5-1.3c0-0.1-0.1-0.2-0.1-0.3c-0.1-0.1-0.2-0.1-0.2-0.1
		c-0.1,0-0.2,0.1-0.2,0.2c-0.2,0.6-0.4,1.2-0.6,1.7c-0.4,1.2-0.9,2.4-1.3,3.6c-0.4,1-0.7,2-1.1,3c-0.4,1.1-0.8,2.1-1.2,3.2
		c-0.1,0.3-0.3,0.4-0.5,0.4c-0.1,0-0.2,0-0.2,0c-0.2,0-0.3-0.1-0.4-0.3c0-0.1-0.1-0.3-0.1-0.4c-0.2-0.8-0.4-1.5-0.6-2.3
		c-0.3-1-0.5-1.9-0.8-2.9c-0.3-0.9-0.5-1.8-0.7-2.7c-0.2-0.8-0.4-1.6-0.7-2.3c-0.2-0.5-0.3-1.1-0.5-1.6c-0.2-0.6-0.4-1.2-0.7-1.7
		c-0.2-0.3-0.4-0.6-0.6-0.8c-0.2-0.3-0.5-0.4-0.9-0.5c-0.1,0-0.2,0-0.2-0.1c-0.1,0-0.2-0.1-0.2-0.3c0-0.1,0.1-0.2,0.2-0.2
		c0.2,0,0.3,0,0.5,0C126.2,25.4,127,25.4,127.8,25.4L127.8,25.4L127.8,25.4z"/>
	<path class="st0" d="M47.1,41.4c-0.1-0.4,0-0.5,0.3-0.5c0.3-0.1,0.7-0.1,1-0.2c0.3-0.1,0.5-0.3,0.5-0.6c0-0.3,0.1-0.6,0.1-0.8
		c0-3.8,0-7.7,0-11.5c0-0.3,0-0.5-0.1-0.8c0-0.5-0.4-0.7-0.8-0.8c-0.2,0-0.4,0-0.5-0.1c-0.1,0-0.2,0-0.3-0.1c-0.1,0-0.2-0.1-0.2-0.3
		c0-0.1,0.1-0.2,0.2-0.2c0.1,0,0.2,0,0.4,0c1.6,0,3.3,0,4.9,0c0.1,0,0.2,0,0.4,0c0.1,0,0.2,0.1,0.2,0.2c0,0.1-0.1,0.2-0.2,0.3
		c-0.1,0-0.2,0.1-0.3,0.1c-0.2,0-0.3,0-0.5,0.1c-0.6,0.1-0.9,0.4-0.9,1.1c0,0.4,0,0.8,0,1.2c0,1.5,0,2.9,0,4.4c0,0,0,0.1,0,0.1
		c0,0.7,0.1,0.7,0.7,0.7c2.2,0,4.5,0,6.7,0c0.6,0,0.7-0.1,0.7-0.7c0-1.9,0-3.8,0-5.6c0-0.1,0-0.2,0-0.2c0-0.6-0.3-0.9-0.9-1
		c-0.2,0-0.4,0-0.6-0.1c-0.1,0-0.2,0-0.3-0.1c-0.1-0.1-0.1-0.2-0.1-0.2c0-0.1,0.1-0.2,0.2-0.2c0.1,0,0.3,0,0.4,0c1.6,0,3.2,0,4.8,0
		c0.2,0,0.3,0,0.5,0.1c0.1,0,0.1,0.1,0.1,0.2c0,0.1,0,0.2-0.1,0.3C63.2,26,63,26,62.9,26c-0.2,0-0.4,0-0.6,0.1
		c-0.6,0.2-0.8,0.5-0.8,0.9c0,0.2,0,0.4,0,0.5c0,3.9,0,7.8,0,11.7c0,0.2,0,0.4,0,0.5c0,0.4,0.2,0.8,0.7,0.9c0.2,0.1,0.5,0.1,0.7,0.2
		c0.1,0,0.2,0,0.3,0.1c0.2,0,0.2,0.2,0.2,0.3c0,0.1-0.1,0.2-0.2,0.2c-0.1,0-0.2,0-0.4,0c-1.6,0-3.2,0-4.9,0c-0.1,0-0.3,0-0.4,0
		c-0.1,0-0.2-0.1-0.2-0.2c0-0.1,0-0.2,0.2-0.3c0.1,0,0.2,0,0.3-0.1c0.2-0.1,0.5-0.1,0.7-0.2c0.4-0.1,0.6-0.4,0.7-0.9
		c0-0.1,0-0.2,0-0.4c0-1.4,0-2.8,0-4.3c0-0.1,0-0.2,0-0.2c0-0.3-0.1-0.4-0.4-0.4c-0.1,0-0.2,0-0.2,0c-2.2,0-4.4,0-6.6,0
		c-0.2,0-0.3,0-0.5,0c-0.2,0-0.4,0.1-0.4,0.4c0,0.1,0,0.2,0,0.3c0,1.4,0,2.8,0,4.2c0,0.2,0,0.3,0,0.5c0,0.4,0.2,0.6,0.6,0.7
		c0.3,0.1,0.6,0.1,0.9,0.2c0.1,0,0.3,0,0.4,0.1c0.1,0,0.1,0.2,0.1,0.2c0,0.1-0.1,0.2-0.2,0.2c-0.1,0-0.3,0-0.4,0c-1.7,0-3.3,0-5,0
		C47.4,41.4,47.2,41.4,47.1,41.4L47.1,41.4z"/>
	<path class="st0" d="M115.3,34.5c-1.1,0-2.3,0-3.4,0c-0.6,0-0.6,0.1-0.6,0.6c0,1.5,0,2.9,0,4.4c0,0.1,0,0.2,0,0.4
		c0,0.4,0.2,0.7,0.6,0.8c0.2,0.1,0.5,0.1,0.7,0.2c0.1,0,0.3,0,0.4,0.1c0.1,0,0.2,0.1,0.2,0.3c0,0.1-0.1,0.2-0.2,0.2
		c-0.1,0-0.2,0-0.4,0c-1.6,0-3.3,0-4.9,0c-0.1,0-0.2,0-0.4,0c-0.1,0-0.2-0.1-0.2-0.2c0-0.1,0.1-0.2,0.2-0.3c0.1,0,0.2,0,0.3-0.1
		c0.3-0.1,0.5-0.1,0.7-0.2c0.4-0.1,0.6-0.4,0.6-0.7c0-0.2,0-0.4,0-0.6c0-3.9,0-7.9,0-11.8c0-0.2,0-0.4,0-0.5c0-0.5-0.4-0.8-0.9-0.9
		c-0.2,0-0.4,0-0.6-0.1c-0.1,0-0.2,0-0.3-0.1c-0.1-0.1-0.1-0.2-0.1-0.3c0-0.1,0.1-0.1,0.1-0.2c0.1,0,0.2,0,0.3,0c1.7,0,3.4,0,5,0
		c0.1,0,0.2,0,0.3,0.1c0.1,0,0.1,0.1,0.1,0.2c0,0.1,0,0.2-0.1,0.2c-0.1,0.1-0.2,0.1-0.3,0.1c-0.2,0-0.4,0-0.5,0.1
		c-0.2,0-0.3,0.1-0.5,0.2c-0.3,0.1-0.4,0.4-0.5,0.7c0,0.1,0,0.3,0,0.4c0,1.8,0,3.7,0,5.5c0,0.7,0.1,0.8,0.8,0.8c2.2,0,4.4,0,6.5,0
		c0.7,0,0.8,0,0.8-0.8c0-1.8,0-3.6,0-5.5c0-0.1,0-0.2,0-0.4c0-0.5-0.3-0.8-0.8-1c-0.2-0.1-0.5-0.1-0.7-0.1c-0.1,0-0.3-0.1-0.4-0.2
		c-0.1-0.1-0.1-0.3,0.1-0.4c0.2,0,0.3,0,0.5,0c1.2,0,2.3,0,3.5,0c0.4,0,0.9,0,1.3,0c0.1,0,0.3,0,0.4,0c0.1,0,0.2,0.1,0.2,0.2
		c0,0.1-0.1,0.2-0.2,0.3c-0.2,0-0.4,0.1-0.5,0.1c-0.3,0-0.5,0.1-0.7,0.2c-0.2,0.1-0.3,0.3-0.4,0.5c0,0.3-0.1,0.6-0.1,0.9
		c0,2.2,0,4.4,0,6.6c0,1.6,0,3.2,0,4.8c0,0.3,0,0.5,0.1,0.8c0,0.4,0.3,0.7,0.6,0.8c0.2,0.1,0.5,0.1,0.7,0.2c0.1,0,0.2,0,0.2,0
		c0.2,0,0.4,0.2,0.3,0.3c0,0.1-0.1,0.2-0.4,0.2c-0.1,0-0.2,0-0.4,0c-1.5,0-3.1,0-4.6,0c-0.2,0-0.4,0-0.6-0.1c-0.1,0-0.1-0.1-0.1-0.2
		c0-0.1,0-0.2,0.1-0.3c0.1-0.1,0.3-0.1,0.4-0.1c0.3-0.1,0.6-0.1,0.9-0.2c0.4-0.1,0.6-0.4,0.6-0.8c0-0.2,0-0.4,0-0.5
		c0-1.4,0-2.7,0-4.1c0-0.1,0-0.2,0-0.4c0-0.2-0.1-0.3-0.3-0.3c-0.1,0-0.2,0-0.3,0C117.5,34.5,116.4,34.5,115.3,34.5L115.3,34.5
		L115.3,34.5z"/>
	<path class="st0" d="M159.1,41.4c-0.7,0-1.3,0-2,0c-0.2,0-0.3,0-0.5,0c-0.1,0-0.2-0.1-0.2-0.2c0-0.1,0-0.2,0.2-0.3
		c0.1,0,0.1,0,0.2-0.1c0.9-0.2,1.1-0.6,0.9-1.5c0-0.2-0.1-0.4-0.2-0.6c-0.2-0.7-0.5-1.4-0.7-2.1c-0.1-0.4-0.4-0.8-0.7-1
		c-0.6-0.4-1.2-0.9-1.8-1.3c-0.1,0-0.1-0.1-0.2-0.1c-0.2-0.1-0.4-0.1-0.6,0c-0.3,0.2-0.6,0.4-0.9,0.6c-0.5,0.3-0.9,0.6-1.4,0.9
		c-0.3,0.2-0.6,0.5-0.7,0.9c-0.2,0.7-0.5,1.5-0.7,2.2c-0.1,0.2-0.1,0.4-0.2,0.6c-0.1,0.6,0.1,1.1,0.7,1.3c0.1,0,0.2,0.1,0.3,0.1
		c0.1,0.1,0.2,0.2,0.1,0.3c0,0.1-0.1,0.2-0.2,0.2c-0.1,0-0.2,0-0.4,0c-1,0-2,0-3,0c-0.1,0-0.3,0-0.4,0c-0.1,0-0.1-0.1-0.2-0.2
		c0-0.1,0-0.2,0.1-0.3c0.1-0.1,0.2-0.1,0.3-0.1c0.6-0.2,1.1-0.6,1.3-1.2c0.3-0.6,0.5-1.2,0.8-1.8c0.5-1.2,0.9-2.4,1.4-3.5
		c0.4-1.2,0.9-2.3,1.3-3.5c0.4-1,0.7-1.9,1.1-2.9c0.2-0.7,0.5-1.3,0.7-2c0.3-0.8,0.3-0.8,1.2-0.8c0.4,0,0.4,0.1,0.6,0.4
		c0.5,1.5,1,3,1.5,4.5c0.3,1,0.7,2.1,1.1,3.1c0.4,1.3,0.9,2.6,1.3,3.9c0.3,0.9,0.6,1.9,1.1,2.8c0.2,0.5,0.6,0.8,1.1,1
		c0.3,0.1,0.4,0.2,0.3,0.4c-0.1,0.2-0.3,0.2-0.4,0.2C160.6,41.4,159.8,41.4,159.1,41.4L159.1,41.4L159.1,41.4z M156.2,34.8
		c0-0.1,0-0.2-0.1-0.3c-0.1-0.1-0.1-0.3-0.2-0.4c-0.4-1.1-0.8-2.3-1.1-3.4c-0.2-0.8-0.5-1.5-0.7-2.3c0-0.1-0.1-0.2-0.1-0.3
		c-0.1-0.1-0.3-0.1-0.4,0c0,0.1-0.1,0.1-0.1,0.2c-0.1,0.4-0.3,0.8-0.4,1.2c-0.6,1.5-1.1,3.1-1.7,4.6c0,0.1-0.1,0.3-0.2,0.4
		c0,0.1,0,0.2,0,0.3c0.1,0.1,0.2,0,0.3,0c0.1-0.1,0.2-0.1,0.2-0.2c0.3-0.3,0.7-0.5,1-0.8c0.2-0.2,0.5-0.4,0.7-0.5
		c0.1-0.1,0.3-0.1,0.4,0c0.1,0,0.1,0.1,0.2,0.1c0.5,0.4,0.9,0.8,1.4,1.1c0.1,0.1,0.2,0.2,0.4,0.3C156.1,35,156.2,34.9,156.2,34.8
		L156.2,34.8z"/>
	<path class="st0" d="M77.1,41.4c-0.7,0-1.3,0-2,0c-0.2,0-0.3,0-0.5,0c-0.1,0-0.1-0.1-0.1-0.2c0-0.1,0-0.2,0.1-0.3
		c0-0.1,0.1-0.1,0.2-0.1c0.1,0,0.2,0,0.3-0.1c0.6-0.2,0.7-0.6,0.7-1c0-0.2-0.1-0.4-0.1-0.6c-0.3-0.8-0.6-1.7-0.8-2.5
		c-0.1-0.3-0.3-0.6-0.6-0.8c-0.7-0.5-1.3-1-2-1.5c0,0,0,0,0,0c-0.2-0.2-0.4-0.2-0.7,0c-0.5,0.4-1.1,0.7-1.6,1.1
		c-0.2,0.2-0.5,0.3-0.7,0.5c-0.3,0.2-0.5,0.4-0.6,0.8c-0.2,0.7-0.5,1.5-0.7,2.2c-0.1,0.2-0.1,0.4-0.2,0.6c-0.1,0.7,0.1,1.1,0.7,1.4
		c0.1,0,0.2,0,0.2,0.1c0.2,0.1,0.2,0.2,0.2,0.3c0,0.1-0.1,0.2-0.3,0.2c-0.1,0-0.2,0-0.2,0c-1,0-2.1,0-3.1,0c-0.1,0-0.2,0-0.3,0
		c-0.1,0-0.2-0.1-0.2-0.2c0-0.1,0.1-0.2,0.1-0.2c0-0.1,0.1-0.1,0.2-0.1c0.6-0.2,1.1-0.6,1.3-1.2c0.3-0.6,0.5-1.2,0.8-1.8
		c0.6-1.5,1.1-2.9,1.7-4.4c0.4-1.2,0.9-2.4,1.3-3.6c0.3-0.9,0.7-1.9,1.1-2.8c0.1-0.4,0.3-0.7,0.4-1.1c0.1-0.2,0.1-0.3,0.2-0.5
		c0.1-0.2,0.2-0.3,0.4-0.3c0.2,0,0.4,0,0.7,0c0.2,0,0.4,0.1,0.4,0.3c0.1,0.2,0.2,0.5,0.2,0.7c0.3,0.8,0.5,1.6,0.8,2.4
		c0.3,1,0.7,2.1,1,3.2c0.2,0.7,0.5,1.4,0.7,2.1c0.3,0.8,0.5,1.5,0.8,2.3c0.4,1.1,0.8,2.2,1.2,3.2c0.1,0.2,0.2,0.4,0.3,0.5
		c0.2,0.4,0.5,0.7,1,0.9c0.1,0,0.2,0.1,0.3,0.2c0.1,0.1,0.1,0.3-0.1,0.4c-0.2,0-0.3,0.1-0.5,0.1C78.4,41.4,77.8,41.4,77.1,41.4
		L77.1,41.4z M69.4,35c0.1-0.1,0.3-0.1,0.4-0.2c0.6-0.4,1.1-0.8,1.7-1.2c0.5-0.3,0.5-0.3,0.9,0c0.4,0.4,0.8,0.7,1.3,1.1
		c0.1,0.1,0.3,0.2,0.4,0.3c0,0,0.1,0,0.2,0c0,0,0.1-0.1,0.1-0.2c0-0.1-0.1-0.2-0.1-0.3c-0.1-0.4-0.2-0.7-0.4-1.1
		c-0.3-0.9-0.6-1.7-0.8-2.6c-0.2-0.8-0.5-1.5-0.7-2.3c0-0.1,0-0.2-0.1-0.2c-0.1-0.1-0.2-0.2-0.3-0.2c-0.1,0-0.2,0.1-0.2,0.2
		c-0.1,0.2-0.2,0.5-0.2,0.7c-0.3,0.9-0.7,1.9-1,2.8c-0.3,0.9-0.7,1.8-1,2.8c0,0.1-0.1,0.2-0.1,0.2C69.3,34.9,69.3,34.9,69.4,35
		L69.4,35z"/>
	<path class="st0" d="M95.6,39.1c0-0.4,0-0.8,0-1.2c0-0.1,0-0.2,0-0.3c0-0.1,0.1-0.2,0.2-0.2c0.1,0,0.2,0,0.3,0.1
		c0.1,0.1,0.1,0.3,0.1,0.4c0.1,0.7,0.4,1.3,0.8,1.8c0.6,0.7,1.4,1.1,2.3,1.2c0.9,0.1,1.6,0,2.4-0.6c1.1-0.9,1.4-2.3,0.9-3.5
		c-0.2-0.6-0.6-1.1-1-1.5c-0.8-0.8-1.8-1.5-2.8-2.2c-0.7-0.4-1.4-0.9-1.9-1.5c-1-1.1-1.3-2.4-0.9-3.8c0.1-0.3,0.3-0.6,0.5-0.9
		c0.5-0.7,1.3-1.2,2.2-1.5c1-0.4,2-0.3,3-0.3c0.7,0,1.3,0.1,1.9,0.3c0.4,0.1,0.5,0.3,0.5,0.6c0,0.8,0,1.5,0,2.3c0,0.1,0,0.2-0.1,0.2
		c-0.1,0.2-0.4,0.2-0.5,0c-0.1-0.2-0.1-0.4-0.2-0.6c-0.2-0.8-0.6-1.5-1.4-1.8c-0.9-0.4-1.8-0.4-2.7,0c-1.2,0.6-1.6,2.1-0.9,3.3
		c0.3,0.5,0.8,1,1.2,1.3c0.6,0.5,1.3,1,1.9,1.5c0.7,0.5,1.3,1,2,1.6c0.6,0.5,1,1.1,1.3,1.8c0.1,0.2,0.2,0.4,0.2,0.7
		c0.1,0.6,0.1,1.1,0,1.7c-0.1,0.9-0.6,1.6-1.2,2.1c-0.6,0.6-1.4,0.9-2.2,1.2c-1.4,0.4-2.7,0.4-4.1,0.1c-0.5-0.1-1-0.2-1.5-0.4
		c-0.4-0.1-0.5-0.2-0.5-0.6C95.5,40,95.5,39.6,95.6,39.1L95.6,39.1L95.6,39.1z"/>
	<path class="st0" d="M168.7,41.4c-1.6,0-3.2,0-4.9,0c-0.2,0-0.4,0-0.5,0c-0.1,0-0.2-0.1-0.2-0.2c0-0.1,0-0.2,0.1-0.2
		c0.1-0.1,0.2-0.1,0.3-0.1c0.3-0.1,0.6-0.1,0.9-0.2c0.3-0.1,0.4-0.3,0.5-0.6c0-0.3,0.1-0.7,0.1-1c0-2.8,0-5.6,0-8.4c0-1,0-2,0-3
		c0-0.2,0-0.5,0-0.7c-0.1-0.5-0.3-0.8-0.9-0.9c-0.2,0-0.4,0-0.6-0.1c-0.1,0-0.2,0-0.3-0.1c-0.1-0.1-0.1-0.2-0.1-0.2
		c0-0.1,0.1-0.2,0.2-0.2c0.1,0,0.3,0,0.4,0c1.6,0,3.2,0,4.9,0c0.1,0,0.3,0,0.4,0c0.1,0,0.2,0.1,0.2,0.2c0,0.1-0.1,0.2-0.1,0.2
		c-0.1,0.1-0.2,0.1-0.3,0.1c-0.2,0-0.4,0-0.5,0.1c-0.7,0.1-1,0.6-0.9,1.1c0,0.1,0,0.2,0,0.3c0,3.8,0,7.5,0,11.3c0,0.2,0,0.4,0,0.5
		c0,0.7,0.5,1.2,1.1,1.3c0.8,0.2,1.6,0.2,2.4,0.2c0.4,0,0.7-0.1,1.1-0.1c0.8-0.1,1.4-0.5,1.8-1.2c0.2-0.4,0.3-0.8,0.5-1.1
		c0.1-0.2,0.2-0.4,0.3-0.7c0-0.1,0.1-0.1,0.1-0.2c0.1-0.1,0.2-0.1,0.3-0.1c0.1,0,0.2,0.1,0.2,0.3c0,0.3-0.1,0.6-0.1,0.9
		c-0.1,0.8-0.3,1.6-0.4,2.5c-0.1,0.4-0.2,0.5-0.5,0.5c-0.4,0-0.8,0-1.2,0C171.3,41.4,170,41.4,168.7,41.4L168.7,41.4z"/>
	<path class="st0" d="M153.2,55.2c-0.1,0.1-0.1,0.2-0.2,0.2c-0.2,0-0.3,0-0.5,0c-0.5,0-0.9,0-1.4,0c-0.2,0-0.4,0-0.6-0.1
		c0-0.2,0.1-0.2,0.2-0.2c0.5-0.2,0.6-0.2,0.6-0.8c0-1.1,0-2.3,0-3.4c0-0.2,0-0.5,0-0.7c0-0.1,0-0.2-0.2-0.2c-0.1,0-0.2,0.1-0.2,0.1
		c-0.2,0.4-0.4,0.8-0.6,1.2c-0.6,1.1-1.1,2.3-1.7,3.4c-0.1,0.2-0.1,0.3-0.2,0.5c-0.1,0.1-0.1,0.2-0.3,0.2c-0.1,0-0.2-0.1-0.2-0.2
		c-0.3-0.5-0.5-1-0.8-1.5c-0.5-1-1-1.9-1.4-2.9c-0.1-0.1-0.1-0.3-0.2-0.4c0-0.1-0.1-0.2-0.1-0.2c-0.1,0-0.1-0.1-0.2-0.1
		c0,0-0.1,0.1-0.1,0.1c0,0.1,0,0.2,0,0.3c0,1.1,0,2.3,0,3.4c0,0.2,0,0.4,0,0.5c0,0.3,0.2,0.6,0.5,0.7c0.1,0,0.2,0.1,0.3,0.1
		c0,0.1,0,0.2-0.1,0.2c-0.6,0-1.2,0-1.8,0c0,0-0.1-0.1-0.1-0.1c0,0,0-0.1,0.1-0.1c0,0,0.1,0,0.2-0.1c0.1,0,0.1-0.1,0.2-0.1
		c0.2-0.1,0.3-0.3,0.3-0.5c0-0.1,0-0.3,0-0.4c0-1.5,0-3,0-4.6c0-0.5-0.2-0.8-0.6-1.1c-0.1,0-0.1-0.1-0.2-0.1
		c-0.1-0.1-0.3-0.1-0.2-0.3c0-0.1,0.2-0.1,0.3-0.1c0.4,0,0.8,0,1.1,0c0.2,0,0.4,0.1,0.5,0.3c0.2,0.3,0.3,0.6,0.5,0.9
		c0.7,1.3,1.3,2.6,2,3.9c0.1,0.2,0.2,0.4,0.3,0.6c0.1,0.2,0.3,0.2,0.4,0c0,0,0-0.1,0.1-0.1c0.6-1.2,1.2-2.3,1.8-3.5
		c0.3-0.6,0.6-1.2,0.9-1.7c0.1-0.2,0.3-0.4,0.6-0.4c0.3,0,0.6,0,0.9,0c0,0,0.1,0.1,0.1,0.1c0,0,0,0.1-0.1,0.2c0,0,0,0,0,0
		c-0.5,0.2-0.7,0.7-0.7,1.2c0,1.6,0,3.3,0,4.9c0,0.1,0,0.2,0,0.3c0,0.3,0.1,0.4,0.4,0.5C152.9,55.1,153,55.2,153.2,55.2L153.2,55.2z
		"/>
	<path class="st0" d="M176.4,55.3c-0.1,0-0.3,0.1-0.4,0.1c-0.6,0-1.2,0-1.8,0c0,0,0-0.1-0.1-0.1c0-0.2,0.1-0.2,0.2-0.2
		c0.4-0.1,0.6-0.4,0.5-0.8c0-0.2,0-0.4,0-0.6c0-1.4,0-2.9,0-4.3c0-0.5-0.2-0.8-0.7-1.1c-0.1-0.1-0.2-0.1-0.4-0.2c-0.1,0,0-0.2,0-0.2
		c0,0,0.1,0,0.1,0c0.4,0,0.8,0,1.2,0c0.2,0,0.4,0.1,0.5,0.2c0.2,0.2,0.3,0.4,0.5,0.6c1.2,1.5,2.5,3,3.7,4.5c0,0,0,0,0,0
		c0.1,0.1,0.2,0.2,0.3,0.2c0.2-0.1,0.2-0.2,0.2-0.4c0-1.3,0-2.6,0-3.9c0-0.1,0-0.2,0-0.4c0-0.3-0.2-0.5-0.5-0.6
		c-0.1,0-0.3,0-0.4-0.3c0.1,0,0.2-0.1,0.2-0.1c0.3,0,0.6,0,0.9,0c0.3,0,0.6,0,0.8,0c0.1,0,0.2,0.1,0.2,0.1c0,0.1,0,0.2-0.1,0.2
		c-0.1,0.1-0.2,0.1-0.3,0.1c-0.2,0.1-0.4,0.3-0.4,0.6c0,0.3,0,0.6,0,0.8c0,1,0,2.1,0,3.1c0,0.8,0,1.5,0,2.3c0,0.1,0,0.1,0,0.2
		c0,0.2-0.2,0.2-0.4,0.1c-0.1-0.1-0.2-0.2-0.3-0.3c-0.6-0.7-1.3-1.5-1.9-2.2c-0.9-1-1.7-2-2.6-3c-0.1-0.1-0.2-0.3-0.4-0.3
		c-0.2,0.1-0.2,0.3-0.2,0.5c0,1.3,0,2.7,0,4c0,0,0,0.1,0,0.1c0,0.7,0.1,0.8,0.8,1c0.1,0,0.1,0.1,0.2,0.1
		C176.4,55.2,176.4,55.2,176.4,55.3L176.4,55.3z"/>
	<path class="st0" d="M132.7,51.9c0-1.7,0.7-2.9,2-3.7c2-1.2,4.4-0.4,5.4,1.6c0.4,0.8,0.5,1.7,0.2,2.7c-0.3,1.3-1.1,2.2-2.3,2.7
		c-2,0.9-4.3,0.1-5.2-2C132.8,52.8,132.7,52.3,132.7,51.9L132.7,51.9z M139.3,51.7c0.1-0.5-0.1-0.9-0.2-1.4
		c-0.1-0.6-0.4-1.1-0.8-1.5c-0.8-0.8-2.1-1.1-3.2-0.3c-0.6,0.4-0.9,1-1.1,1.7c-0.2,0.8-0.1,1.7,0,2.5c0.2,0.7,0.5,1.3,1,1.8
		c0.2,0.2,0.5,0.4,0.8,0.6c1.2,0.4,2.4-0.1,3-1.2C139.2,53.2,139.3,52.5,139.3,51.7L139.3,51.7z"/>
	<path class="st0" d="M219.3,52c0.1,0,0.2,0,0.3-0.1c0.8-0.2,1.3-0.7,1.4-1.6c0-0.3,0-0.7-0.1-1c-0.1-0.5-0.5-0.9-1-1
		c-0.3-0.1-0.7-0.1-1-0.1c-0.3,0-0.5,0.1-0.5,0.5c0,0.1,0,0.2,0,0.3c0,1.7,0,3.4,0,5.2c0,0.2,0,0.4,0,0.5c0,0.3,0.1,0.4,0.4,0.5
		c0.1,0,0.2,0.1,0.3,0.1c0.1,0.2,0,0.2-0.1,0.2c-0.1,0-0.2,0-0.3,0c-0.5,0-1.1,0-1.6,0c-0.2,0-0.3,0-0.4-0.1c0-0.2,0.1-0.2,0.2-0.2
		c0.3-0.1,0.5-0.3,0.5-0.6c0-0.1,0-0.2,0-0.4c0-1.7,0-3.4,0-5c0-0.1,0-0.2,0-0.4c0-0.3-0.1-0.5-0.4-0.6c0,0-0.1,0-0.1,0
		c0-0.1-0.1-0.1-0.1-0.2c0-0.1,0.1-0.1,0.2-0.1c0.1,0,0.2,0,0.2,0c0.8,0,1.5,0,2.3,0c0.6,0,1.2,0.1,1.7,0.4c0.3,0.2,0.5,0.5,0.7,0.8
		c0,0.1,0.1,0.2,0.1,0.2c0,0.4,0,0.8,0,1.1c0,0.2-0.1,0.3-0.2,0.5c-0.5,0.9-1.3,1.3-2.3,1.2C219.4,52.1,219.3,52.1,219.3,52
		L219.3,52L219.3,52z"/>
	<path class="st0" d="M164.2,55.3C164.2,55.2,164.2,55.2,164.2,55.3c0.5-0.4,0.7-0.8,0.9-1.2c0.4-1.1,0.9-2.3,1.3-3.4
		c0.3-0.9,0.6-1.7,1-2.6c0-0.1,0.1-0.1,0.1-0.2c0.2-0.3,0.6-0.2,0.7,0c0.2,0.5,0.3,0.9,0.5,1.4c0.2,0.7,0.5,1.5,0.7,2.2
		c0.3,0.8,0.5,1.5,0.8,2.3c0,0.1,0.1,0.2,0.1,0.3c0.2,0.4,0.4,0.8,0.7,1.1c0,0.1-0.1,0.1-0.1,0.2c-0.6,0-1.3,0-1.9,0
		c0,0-0.1-0.1-0.1-0.1c0.1-0.1,0.1-0.1,0.2-0.2c0.3-0.2,0.3-0.4,0.3-0.7c-0.1-0.4-0.2-0.7-0.4-1.1c-0.1-0.3-0.3-0.4-0.6-0.4
		c-0.7,0-1.3,0-2,0c-0.3,0-0.5,0.1-0.5,0.4c-0.1,0.3-0.2,0.6-0.3,0.9c-0.1,0.4-0.1,0.6,0.3,0.9c0,0,0.1,0.1,0.1,0.1
		c0,0-0.1,0.1-0.1,0.1c-0.5,0-0.9,0-1.4,0C164.3,55.4,164.3,55.3,164.2,55.3L164.2,55.3z M167.3,52.5
		C167.3,52.5,167.3,52.5,167.3,52.5c0.3,0,0.6,0,0.8,0c0.2,0,0.4-0.2,0.3-0.5c-0.3-0.8-0.5-1.6-0.8-2.4c0-0.1-0.1-0.2-0.2-0.3
		c-0.1-0.1-0.2-0.1-0.3,0c0,0.1-0.1,0.1-0.1,0.2c-0.2,0.4-0.3,0.9-0.5,1.3c-0.1,0.4-0.3,0.7-0.4,1.1c-0.1,0.3,0,0.4,0.3,0.4
		C166.8,52.5,167.1,52.5,167.3,52.5L167.3,52.5z"/>
	<path class="st0" d="M159.2,52c0.1,0,0.3-0.1,0.4-0.1c0.6-0.2,1-0.5,1.2-1.1c0.2-0.6,0.2-1.1,0-1.7c-0.2-0.5-0.5-0.8-1-0.9
		c-0.3-0.1-0.5-0.1-0.8-0.1c-0.3,0-0.5,0.1-0.5,0.5c0,0.1,0,0.2,0,0.4c0,1.7,0,3.4,0,5c0,0.1,0,0.2,0,0.3c0,0.4,0.1,0.7,0.6,0.8
		c0,0,0.1,0.1,0.2,0.1c-0.1,0.1-0.1,0.1-0.2,0.1c-0.1,0-0.2,0-0.2,0c-0.6,0-1.1,0-1.7,0c-0.1,0-0.3,0-0.5-0.1
		c0.1-0.1,0.2-0.2,0.3-0.2c0.4-0.1,0.6-0.4,0.6-0.8c0-1.8,0-3.6,0-5.4c0-0.1,0-0.1,0-0.2c0-0.3-0.1-0.5-0.4-0.5
		c-0.1,0-0.2-0.1-0.3-0.1c0,0,0-0.1-0.1-0.1c0,0,0-0.1,0.1-0.1c0.1,0,0.2,0,0.3,0c0.8,0,1.6,0,2.4,0c0.4,0,0.8,0.1,1.2,0.2
		c0.6,0.2,1.3,0.7,1.3,1.6c0,0.6,0,1.2-0.5,1.7c-0.5,0.5-1,0.8-1.7,0.8c-0.2,0-0.3,0-0.5,0C159.2,52.1,159.2,52,159.2,52L159.2,52z"
		/>
	<path class="st0" d="M126.7,55.6c-0.9,0-1.7-0.2-2.5-0.5c-1-0.5-1.5-1.3-1.7-2.3c-0.1-0.6-0.2-1.1-0.1-1.7c0.2-1.2,0.8-2.1,1.9-2.7
		c1.2-0.7,2.5-0.9,3.9-0.5c0.2,0.1,0.4,0.1,0.6,0.2c0.3,0.1,0.5,0.3,0.5,0.7c0,0.3,0,0.6,0,0.8c0,0-0.1,0.1-0.1,0.1
		c-0.1,0-0.2,0-0.2-0.1c-0.1-0.1-0.1-0.3-0.2-0.4c-0.2-0.5-0.5-0.8-1-0.9c-1-0.4-1.9-0.3-2.8,0.2c-0.3,0.2-0.6,0.4-0.8,0.7
		c-0.5,0.7-0.7,1.5-0.7,2.3c0,0.7,0.1,1.3,0.3,2c0.4,0.9,1.1,1.5,2.1,1.7c0.5,0.1,1,0.1,1.5,0c0.7-0.1,1.2-0.5,1.5-1
		c0.1-0.1,0.1-0.2,0.2-0.3c0.1-0.1,0.2-0.2,0.2-0.1c0,0,0.1,0.1,0,0.2c-0.1,0.3-0.2,0.6-0.2,0.9c0,0.2-0.1,0.3-0.3,0.4
		c-0.1,0.1-0.2,0.1-0.4,0.2C127.9,55.5,127.3,55.7,126.7,55.6z"/>
	<path class="st0" d="M189.2,47.8c0.3,0,0.4,0,0.5,0c0.4,0,0.8,0,1.2,0c0.1,0,0.1,0.1,0.2,0.1c0,0,0,0.1-0.1,0.1
		c-0.4,0.2-0.6,0.6-0.8,1c-0.4,0.8-0.9,1.6-1.4,2.4c-0.3,0.5-0.4,0.9-0.4,1.5c0,0.4,0,0.9,0,1.3c0,0.4,0.1,0.6,0.5,0.7
		c0.1,0,0.1,0.1,0.2,0.1c0,0.2-0.1,0.2-0.2,0.2c-0.1,0-0.2,0-0.2,0c-0.6,0-1.1,0-1.7,0c-0.2,0-0.3,0-0.4-0.1c0-0.2,0.1-0.2,0.2-0.2
		c0.3,0,0.5-0.2,0.5-0.6c0-0.6,0-1.3,0-1.9c0-0.2-0.1-0.4-0.2-0.6c-0.4-0.9-0.9-1.8-1.3-2.6c-0.2-0.5-0.5-1-1-1.3
		c0,0-0.1-0.1-0.1-0.2c0-0.1,0.1-0.1,0.2-0.1c0.4,0,0.8,0,1.1,0c0.3,0,0.6,0,0.8,0c0,0,0.1,0,0.1,0.1c0,0.1,0,0.1-0.1,0.2
		c0,0,0,0,0,0c-0.3,0.3-0.4,0.4-0.2,0.8c0.2,0.4,0.4,0.7,0.5,1.1c0.2,0.4,0.4,0.8,0.6,1.2c0,0.1,0.1,0.1,0.1,0.2
		c0.1,0.1,0.3,0.1,0.4,0c0,0,0.1-0.1,0.1-0.2c0.4-0.7,0.7-1.4,1.1-2c0,0,0-0.1,0.1-0.1c0.3-0.6,0.3-0.7-0.3-1.1
		C189.4,48.1,189.4,48,189.2,47.8L189.2,47.8z"/>
	<path class="st0" d="M205.1,53.7c0,0.1,0,0.2,0,0.3c-0.1,0.4-0.1,0.7-0.2,1.1c0,0.2-0.2,0.3-0.4,0.4c-0.1,0-0.2,0-0.4,0
		c-1.4,0-2.7,0-4.1,0c-0.1,0-0.3,0-0.4-0.1c0-0.1,0.1-0.2,0.2-0.2c0.5-0.1,0.6-0.3,0.6-0.7c0-1.9,0-3.7,0-5.6c0-0.1,0-0.2,0-0.2
		c0-0.2-0.1-0.3-0.3-0.4c-0.1,0-0.3-0.1-0.4-0.1c0,0,0-0.1-0.1-0.2c0.5-0.1,2.2,0,2.5,0c0,0,0,0.1,0.1,0.1c-0.1,0.2-0.2,0.2-0.4,0.2
		c-0.2,0.1-0.3,0.2-0.3,0.4c0,0.1,0,0.3,0,0.4c0,1.6,0,3.3,0,4.9c0,0.1,0,0.3,0,0.4c0,0.3,0.2,0.6,0.5,0.6c0.6,0.1,1.2,0.1,1.8,0
		c0.3-0.1,0.6-0.3,0.7-0.6c0.1-0.2,0.2-0.4,0.3-0.7C204.8,53.7,204.8,53.7,205.1,53.7L205.1,53.7z"/>
	<path class="st0" d="M174.6,25.7c-1.6,0-3.2-1.1-3.5-2.7c-0.3-1.4,0.1-2.6,1.2-3.5c0.6-0.5,1.3-0.7,2-0.8c1.1-0.1,2.6,0.6,3.2,2
		c0.7,1.6,0.2,3.3-1,4.3C175.8,25.5,175.1,25.7,174.6,25.7L174.6,25.7z M177.3,22.1c-0.1-1-0.6-1.9-1.6-2.5c-1-0.6-1.9-0.5-2.9,0.1
		c-1.8,1.2-1.9,3.9,0.1,5.1c0.5,0.3,1.1,0.5,1.8,0.4C176.2,24.9,177.2,23.7,177.3,22.1L177.3,22.1z"/>
	<path class="st0" d="M208.2,55.2c0.1-0.1,0.2-0.1,0.4-0.1c0.3-0.1,0.4-0.3,0.4-0.6c0-0.1,0-0.2,0-0.4c0-1.7,0-3.3,0-5
		c0-0.1,0-0.2,0-0.2c0-0.4-0.1-0.7-0.5-0.8c-0.1,0-0.2-0.1-0.3-0.2c0.1-0.1,0.1-0.1,0.1-0.1c0.7,0,1.5,0,2.2,0c0,0,0.1,0.1,0.1,0.1
		c0,0.1-0.1,0.2-0.1,0.2c-0.5,0.1-0.6,0.5-0.6,0.9c0,1.7,0,3.3,0,5c0,0.1,0,0.3,0,0.4c0.1,0.3,0.3,0.6,0.6,0.6
		c0.6,0.1,1.1,0.1,1.7,0c0.4-0.1,0.7-0.4,0.9-0.8c0.1-0.2,0.2-0.3,0.3-0.5c0,0,0.1-0.1,0.2,0c0,0,0.1,0.1,0.1,0.1
		c-0.1,0.4-0.2,0.9-0.3,1.3c0,0.2-0.2,0.3-0.3,0.3c-0.2,0-0.3,0-0.5,0c-1.3,0-2.6,0-4,0C208.4,55.4,208.3,55.5,208.2,55.2
		L208.2,55.2z"/>
	<path class="st0" d="M176,24.1c-0.3,0.2-0.6,0.1-0.8,0.1c-0.1,0-0.2-0.1-0.3-0.2c-0.2-0.3-0.3-0.6-0.5-0.8
		c-0.1-0.1-0.1-0.3-0.4-0.3c-0.1,0-0.2,0.1-0.2,0.5c0,0.2,0,0.4,0,0.5c0,0.1,0,0.2,0,0.2c-0.1,0.2-0.3,0.2-0.5,0.2
		c-0.2,0-0.3-0.1-0.4-0.2c0-0.1,0-0.2,0-0.2c0-1,0-2.1,0-3.1c0-0.1,0-0.1,0-0.2c0-0.1,0.1-0.2,0.2-0.2c0.5-0.1,1.1-0.1,1.6,0
		c0.9,0.2,1.2,1.2,0.6,1.9c0,0.1-0.1,0.1-0.2,0.2c-0.1,0.2-0.1,0.4,0,0.5c0.2,0.3,0.4,0.7,0.6,1C175.9,23.9,176,24,176,24.1
		L176,24.1z M173.9,21.5c0,0.1,0,0.2,0,0.2c0,0.2,0.2,0.3,0.4,0.3c0.4-0.1,0.5-0.7,0.2-1c-0.1-0.1-0.3-0.2-0.4-0.1
		c-0.2,0-0.2,0.2-0.2,0.3C173.9,21.3,173.9,21.4,173.9,21.5L173.9,21.5z"/>
</g>
</svg>
